<?xml version="1.0" standalone="no"?>
<!DOCTYPE svg PUBLIC "-//W3C//DTD SVG 1.1//EN" "http://www.w3.org/Graphics/SVG/1.1/DTD/svg11.dtd" >
<svg xmlns="http://www.w3.org/2000/svg">
<metadata>Generated by IcoMoon</metadata>
<defs>
<font id="icomoon" horiz-adv-x="1024">
<font-face units-per-em="1024" ascent="960" descent="-64" />
<missing-glyph horiz-adv-x="1024" />
<glyph unicode="&#x20;" horiz-adv-x="512" d="" />
<glyph unicode="&#xe600;" glyph-name="connector-add" d="M512 960c-282.31 0-512-229.688-512-512s229.688-512 512-512c282.312 0 512 229.688 512 512s-229.688 512-512 512zM512 48c-220.88 0-400 179.12-400 400s179.12 400 400 400c220.88 0 400-179.12 400-400s-179.12-400-400-400v0zM514 732c33.137 0 60-26.863 60-60v-448c0-33.137-26.863-60-60-60s-60 26.863-60 60v448c0 33.137 26.863 60 60 60zM797 447c0-33.137-26.863-60-60-60h-448c-33.137 0-60 26.863-60 60s26.863 60 60 60h448c33.137 0 60-26.863 60-60z" />
<glyph unicode="&#xe601;" glyph-name="pencil" d="M741.95 940.75l-741.95-741.95v-262.8h262.8l741.95 741.95c25.689 25.689 25.689 67.211 0 92.9l-169.9 169.9c-25.689 25.689-67.211 25.689-92.9 0zM208.335 67.4h-76.935v77l572.050 572.050 77-77-572.115-572.050z" />
<glyph unicode="&#xe602;" glyph-name="remove" d="M416 512h-64c-17.664 0-32-14.336-32-32v-256c0-17.664 14.336-32 32-32h64c17.664 0 32 14.336 32 32v256c0 17.664-14.336 32-32 32zM672 512h-64c-17.664 0-32-14.336-32-32v-256c0-17.664 14.336-32 32-32h64c17.664 0 32 14.336 32 32v256c0 17.664-14.336 32-32 32zM768 896c0 35.392-28.608 64-64 64h-384c-35.392 0-64-28.608-64-64v-128h-192c-35.392 0-64-28.608-64-64v0c0-35.392 28.608-64 64-64v0-640c0-35.392 28.608-64 64-64h768c35.392 0 64 28.608 64 64v640c35.392 0 64 28.608 64 64v0c0 35.392-28.608 64-64 64h-192v128zM384 832h256v-64h-256v64zM832 64h-640v576h640v-576z" />
<glyph unicode="&#xe603;" glyph-name="accounts" d="M641.081 67.91h-380.090c-139.684 0-253.393 113.647-253.393 253.393s113.711 253.393 253.393 253.393c7.222 0 14.444-0.317 21.538-0.951 52.073 150.706 193.717 254.343 358.553 254.343 209.62 0 380.090-170.471 380.090-380.090s-170.471-380.090-380.090-380.090zM134.294 321.304c0-69.873 56.76-126.696 126.696-126.696h380.090c139.684 0 253.393 113.647 253.393 253.393s-113.711 253.393-253.393 253.393c-125.050 0-230.081-89.448-249.782-212.723l-7.475-46.625c-2.725-17.167-18.181-26.037-34.398-19.638l-43.9 17.294c-13.937 5.512-28.95 8.299-44.534 8.299-69.936 0-126.696-56.824-126.696-126.696z" />
<glyph unicode="&#xe604;" glyph-name="workflows" d="M512 960c-282.752 0-512-229.248-512-512s229.248-512 512-512 512 229.248 512 512-229.248 512-512 512zM512 64c-211.776 0-384 172.224-384 384s172.224 384 384 384 384-172.224 384-384-172.224-384-384-384zM482.368 694.464c-12.096 12.736-31.744 12.736-43.776 0l-43.712-45.888c-12.096-12.608-12.096-33.152 0-45.76l146.88-153.92-148.608-155.776c-12.096-12.672-12.096-33.216 0-45.824l43.776-45.888c12.032-12.608 31.616-12.608 43.776 0l214.4 224.448c12.032 12.736 12.032 33.28 0 45.888l-212.736 222.72z" />
<glyph unicode="&#xe605;" glyph-name="spinner" d="M143.9 450.915c1.35 193.088 148.713 350.331 337.565 364.571 16.878 1.289 30.688 14.792 30.688 31.793v61.375c0 16.94-13.748 30.933-30.626 29.951-246.607-13.564-442.517-209.536-459.211-456.143-1.166-16.878-1.289-44.497-0.429-61.376 14.055-257.040 225.985-461.912 486.892-463.815 260.907-1.78 475.599 202.478 493.275 459.335 1.166 16.878-12.582 30.504-29.521 30.258l-61.375-0.798c-16.94-0.245-30.626-14.178-32.161-31.056-16.878-188.914-176.27-336.338-369.297-335.049-203.46 1.534-367.209 167.555-365.798 370.954z" />
<glyph unicode="&#xe606;" glyph-name="filter" horiz-adv-x="805" d="M801.719 791.442q9.728-23.442-8.009-40.009l-281.71-281.71v-424.009q0-23.991-22.272-33.719-7.424-2.853-14.299-2.853-15.433 0-25.71 10.862l-146.286 146.286q-10.862 10.862-10.862 25.71v277.723l-281.71 281.71q-17.701 16.567-8.009 40.009 9.728 22.272 33.719 22.272h731.429q23.991 0 33.719-22.272z" />
<glyph unicode="&#xe607;" glyph-name="check-circle" d="M512 960c-282.752 0-512-229.248-512-512s229.248-512 512-512 512 229.248 512 512-229.248 512-512 512zM512 64c-211.776 0-384 172.224-384 384s172.224 384 384 384 384-172.224 384-384-172.224-384-384-384zM663.488 622.080l-216.448-216.448-86.528 86.528c-23.936 23.936-62.656 23.936-86.592 0-23.936-23.872-23.936-62.656 0-86.592l129.92-129.728c23.872-23.936 62.656-23.936 86.592 0l259.712 259.712c23.936 23.936 23.936 62.656 0 86.592s-62.72 23.872-86.656-0.064z" />
<glyph unicode="&#xe608;" glyph-name="flowxo" d="M675 800c-101.931 3.528-202.935-38.982-273.797-111.727-39.102-38.389-78.036-76.949-117.203-115.273-49.145 46.683-95.47 96.893-147.266 140.434-54.214 35.849-137.119-7.183-136.837-72.838-3.532-53.097 46.853-82.304 78.258-116.612 25.929-25.348 51.877-50.676 77.845-75.984-45.455-47.018-96.156-89.323-138.832-138.769-34.681-49.735-1.223-126.799 59.046-135.030 41.826-9.414 78.946 16.84 104.489 47.21 34.17 33.791 68.255 67.669 102.298 101.588 63.607-58.271 118.737-127.124 191.361-174.557 143.733-90.2 348.323-60.944 460.35 66.736 103.504 110.78 119.141 291.007 36.016 417.822-62.588 100.943-177.715 163.357-295.726 167zM467 722c-12.77 0.015-46.347-13.33-15.838-2.635l7.828 1.665 8.011 0.97zM538 696c12.169-13.443 19.976-26.832 4.208-4.582l-4.208 4.582zM659 623c96.694 6.438 187.957-78.916 184.938-176.578 1.274-99.898-95.661-184.47-194.332-173.16-61.001 2.695-109.030 44.121-148.269 86.803-29.816 29.275-59.696 58.484-89.337 87.936 50.394 47.076 96.679 98.872 149.811 142.79 28.466 19.639 62.54 31.361 97.189 32.21zM521 186c-13.971-7.499-26.726-12.036-4.822-2.732l4.822 2.732z" />
<glyph unicode="&#xe609;" glyph-name="user" d="M747.584 424.96c51.904 56.896 84.416 131.904 84.416 215.040 0 176.768-143.232 320-320 320s-320-143.232-320-320c0-83.136 32.512-158.144 84.416-215.040-164.928-46.144-260.096-166.72-276.416-360.96v-64c0-35.392 28.672-64 64-64h896c35.328 0 64 28.608 64 64v64c-16.32 194.24-111.488 314.816-276.416 360.96zM131.072 64c17.152 169.344 103.552 216.32 179.904 237.696 42.688 11.904 76.288 45.248 88.512 87.936 12.224 42.752 1.408 88.768-28.48 121.536-23.232 25.536-51.008 68.608-51.008 128.832 0 105.856 86.144 192 192 192s192-86.144 192-192c0-60.224-27.776-103.296-51.008-128.832-29.952-32.768-40.768-78.784-28.48-121.536 12.224-42.688 45.824-76.032 88.576-87.936 76.288-21.376 162.752-68.352 179.904-237.696h-761.92z" />
<glyph unicode="&#xe60a;" glyph-name="github" d="M1016.562 426.667q0-162.962-95.115-293.136t-245.742-180.166q-17.53-3.246-25.645 4.544t-8.116 19.478v136.991q0 62.978-33.761 92.193 37.007 3.896 66.548 11.687t61.029 25.321 52.589 43.175 34.411 68.171 13.309 97.712q0 78.559-51.291 133.746 24.022 59.082-5.193 132.447-18.179 5.843-52.589-7.142t-59.731-28.567l-24.671-15.581q-60.381 16.88-124.656 16.88t-124.656-16.88q-10.389 7.142-27.594 17.53t-54.213 24.997-55.837 8.764q-28.567-73.364-4.544-132.447-51.291-55.186-51.291-133.746 0-55.186 13.309-97.388t34.085-68.171 52.265-43.501 61.029-25.321 66.548-11.687q-25.97-23.372-31.813-66.872-13.634-6.491-29.216-9.739t-37.007-3.246-42.526 13.959-36.033 40.578q-12.336 20.777-31.488 33.761t-32.138 15.581l-12.986 1.948q-13.634 0-18.827-2.922t-3.246-7.466 5.843-9.090 8.441-7.791l4.544-3.246q14.283-6.491 28.243-24.671t20.452-33.112l6.491-14.932q8.441-24.671 28.567-39.929t43.501-19.478 45.123-4.544 36.033 2.273l14.932 2.597q0-24.671 0.325-57.783t0.325-35.060q0-11.687-8.441-19.478t-25.97-4.544q-150.626 49.992-245.742 180.166t-95.115 293.136q0 135.694 66.872 250.287t181.465 181.465 250.287 66.872 250.287-66.872 181.465-181.465 66.872-250.287z" />
<glyph unicode="&#xe60b;" glyph-name="stopwatch" d="M512 960c-282.88 0-512-229.12-512-512s229.12-512 512-512 512 229.12 512 512-229.12 512-512 512zM512 64c-211.84 0-384 172.096-384 384s172.16 384 384 384 384-172.096 384-384-172.16-384-384-384zM640 448h-128v128c0 35.392-28.608 64-64 64s-64-28.608-64-64v-192c0-35.392 28.608-64 64-64h192c35.392 0 64 28.608 64 64s-28.608 64-64 64z" />
<glyph unicode="&#xe60c;" glyph-name="arrows" d="M548.919 959.987c-27.408 0-46.75-20.956-46.75-46.969 0-24.968 22.875-46.812 46.75-46.812h156.5l-311.659-316.597c-9.306-9.71-13.219-21.548-13.219-33.281 0-10.936 4.259-23.141 14.531-32.5 8.797-8.595 20.626-13.844 32.125-13.844 11.929 0 24.771 5.071 33.687 14.594l309.781 313.094v-163.562c0-24.866 22.75-46.969 46.656-46.969 23.916 0 46.688 22.070 46.688 46.969v278.906c0 5.16-1.742 9.924-3.438 14.375l0.626 0.219c-0.144 0.451-0.771 0.584-0.938 1.030-0.357 0.859-0.298 2.098-0.688 2.875l-1.312-0.656c-4.825 10.564-12.733 20.627-22.531 24.937l-5.719 2.531h-4.5c-2.3 0.768-3.148 1.656-8.188 1.656h-268.406zM613.075 441.143c-12.151 0.006-24.248-4.621-33.125-13.656l-0.096 0.064-0.187-0.187-326.25-330.563v146.313c0 26.183-18.959 46.969-46.719 46.969-27.807 0-46.687-20.785-46.687-46.969v-260.125c0-5.427 1.765-12.827 4.281-18.594 4.618-11.417 13.721-21.305 23.813-25.812l5.781-2.594h269.469c23.916 0 46.688 22.101 46.688 47 0 26.013-19.218 46.969-46.688 46.969h-144.656l327.691 331.972c17.012 17.617 16.998 47.66 0.032 65.312-8.886 9.259-21.098 13.9-33.344 13.906zM600.169 407.518l22.188-21.5c-0.096-0.096-0.304 0.096-0.406 0l-21.781 21.5z" />
<glyph unicode="&#xe800;" glyph-name="list" d="M96 768h-64c-17.664 0-32-14.336-32-32v-64c0-17.664 14.336-32 32-32h64c17.664 0 32 14.336 32 32v64c0 17.664-14.336 32-32 32zM992 768h-768c-17.664 0-32-14.336-32-32v-64c0-17.664 14.336-32 32-32h768c17.664 0 32 14.336 32 32v64c0 17.664-14.336 32-32 32zM96 512h-64c-17.664 0-32-14.336-32-32v-64c0-17.664 14.336-32 32-32h64c17.664 0 32 14.336 32 32v64c0 17.664-14.336 32-32 32zM224 384h512c17.664 0 32 14.336 32 32v64c0 17.664-14.336 32-32 32h-512c-17.664 0-32-14.336-32-32v-64c0-17.664 14.336-32 32-32zM96 256h-64c-17.664 0-32-14.336-32-32v-64c0-17.664 14.336-32 32-32h64c17.664 0 32 14.336 32 32v64c0 17.664-14.336 32-32 32zM864 256h-640c-17.664 0-32-14.336-32-32v-64c0-17.664 14.336-32 32-32h640c17.664 0 32 14.336 32 32v64c0 17.664-14.336 32-32 32z" />
<glyph unicode="&#xe900;" glyph-name="eye" d="M512.209 607.916c-88.327 0-159.97-71.643-159.97-159.915s71.643-159.915 159.97-159.915c88.22 0 159.865 71.643 159.865 159.915s-71.643 159.915-159.865 159.915zM565.459 448.001c0-29.479-23.828-53.305-53.305-53.305s-53.305 23.828-53.305 53.305 23.828 53.305 53.305 53.305 53.305-23.828 53.305-53.305zM973.727 472.468c-117.272 187.69-285.77 295.365-462.372 295.365-185.076 0-362.745-112.42-463.65-293.5l-15.3-27.452 16.259-26.92c107.145-177.24 288.81-291.795 462.691-291.795 173.135 0 345.74 107.038 461.84 286.305l18.71 28.84-18.176 29.16zM511.355 234.779c-129.745 0-266.795 83.21-356.348 214.29 84.063 131.61 218.18 212.155 356.348 212.155 129.105 0 259.759-80.439 354.855-216.846-95.415-131.878-226.070-209.597-354.855-209.597z" />
<glyph unicode="&#xe901;" glyph-name="google" d="M520.128 544v-199.68h283.502c-21.815-120.32-127.787-208-283.502-208-171.608 0-311.101 143.070-311.101 312 0 168.994 139.49 311.68 311.101 311.68 77.37 0 146.609-26.24 201.192-77.44v-0.32l146.645 144.32c-90.048 82.56-207.4 133.44-347.834 133.44-287.369 0-520.128-229.12-520.128-512s232.759-512 520.128-512c300.373 0 499.291 208 499.291 500.514 0 37.44-3.544 73.25-10.078 107.486h-489.216z" />
<glyph unicode="&#xe902;" glyph-name="facebook" d="M774.768 952.614v-162.461h-96.615c-35.28 0-59.077-7.384-71.384-22.155s-18.462-36.922-18.462-66.462v-116.306h180.306l-24-182.154h-156.306v-467.076h-188.306v467.076h-156.922v182.154h156.922v134.155c0 76.307 21.332 135.486 64 177.538s99.487 63.077 170.461 63.077c60.307 0 107.077-2.462 140.306-7.384v0z" />
<glyph unicode="&#xe903;" glyph-name="linkedin" d="M232.478 620.782v-661.112h-220.15v661.112h220.15zM246.49 824.921c0.443-32.465-10.787-59.598-33.689-81.389s-53.035-32.69-90.392-32.69h-1.332c-36.467 0-65.821 10.897-88.061 32.69s-33.355 48.921-33.355 81.389c0 32.913 11.453 60.152 34.354 81.723s52.812 32.356 89.727 32.356c36.915 0 66.488-10.787 88.727-32.356s33.579-48.81 34.022-81.723v0zM1024.345 338.594v-378.924h-219.479v353.571c0 46.698-9.007 83.279-27.017 109.74s-46.141 39.694-84.391 39.694c-28.018 0-51.479-7.671-70.379-23.016s-33.022-34.354-42.362-57.037c-4.892-13.342-7.337-31.354-7.337-54.035v-368.916h-219.479c0.89 177.454 1.332 321.327 1.332 431.624s-0.223 176.117-0.667 197.467l-0.667 32.023h219.479v-96.064h-1.332c8.893 14.232 18.010 26.685 27.35 37.357s21.902 22.235 37.691 34.689c15.788 12.452 35.135 22.126 58.040 29.021s48.367 10.339 76.384 10.339c76.051 0 137.204-25.238 183.455-75.718s69.38-124.418 69.38-221.816v0z" />
<glyph unicode="&#xe904;" glyph-name="email" horiz-adv-x="1025" d="M512.545 960c-283.053 0-512.545-229.492-512.545-512.545 0-276.133 218.472-500.564 491.915-511.455-1.602-0.192 29.279 0.641 33.636 1.538 71.948 5.894 143.961 25.884 210.912 64.004 30.689 17.939 41.58 57.021 23.705 87.773-17.362 30.689-56.444 41.58-87.133 23.705-56.124-31.393-115.707-46.898-175.995-49.268-204.954 8.329-368.904 176.636-368.904 383.704 0 212.322 172.215 384.408 384.408 384.408 212.322 0 384.408-172.087 384.408-384.408v-64.068c0-35.366-28.767-64.068-64.068-64.068s-64.068 28.702-64.068 64.068c0 0 0 41.772 0 64.068 0 141.526-114.746 256.272-256.272 256.272s-256.272-114.746-256.272-256.272 114.746-256.272 256.272-256.272c67.336 0 128.136 26.524 173.945 69.065 35.237-41.901 87.325-69.065 146.396-69.065 106.097 0 192.204 88.094 192.204 202.199v54.073c0 283.053-229.492 512.545-512.545 512.545zM512.545 319.319c-70.731 0-128.136 57.469-128.136 128.136s57.405 128.136 128.136 128.136 128.136-57.469 128.136-128.136-57.405-128.136-128.136-128.136z" />
<glyph unicode="&#xe905;" glyph-name="embed" horiz-adv-x="1536" d="M1517.952 491.52l-430.208 449.664c-24.064 25.088-62.848 25.088-86.912 0l-86.784-90.752c-24.064-25.088-24.064-65.792 0-90.88l299.904-313.472-296.064-309.504c-24.064-25.088-24.064-65.92 0-90.88l86.912-90.88c24.064-25.088 62.848-25.088 86.912 0l426.368 445.568c23.936 25.344 23.936 65.92-0.128 91.136v0zM448.384 941.184c24.064 25.088 62.848 25.088 86.912 0l86.784-90.752c24.064-25.088 24.064-65.792 0-90.88l-299.904-313.472 296.064-309.504c24.064-25.088 24.064-65.92 0-90.88l-86.912-90.88c-24.064-25.088-62.848-25.088-86.912 0l-426.368 445.568c-24.064 25.216-24.064 65.792 0 91.008l430.336 449.792z" />
<glyph unicode="&#xe906;" glyph-name="private" horiz-adv-x="768" d="M704 576v0 64c0 176.768-143.232 320-320 320s-320-143.232-320-320v-64c-35.392 0-64-28.608-64-64v-512c0-35.392 28.608-64 64-64h640c35.392 0 64 28.608 64 64v512c0 35.392-28.608 64-64 64zM384 832c105.856 0 192-86.144 192-192v-64h-384v64c0 105.856 86.144 192 192 192zM640 64h-512v384h512v-384z" />
<glyph unicode="&#xe907;" glyph-name="shared" horiz-adv-x="768" d="M192 576v64c0 105.856 86.144 192 192 192 83.904 0 103.643-1.343 151.828-46.172 40.609-37.781 72.32-11.461 84.32 0s28.359 52.758 0 83.859c-28.359 31.102-81.14 90.312-236.148 90.312-176.768 0-320-143.232-320-320v-64c-35.392 0-64-28.608-64-64v-512c0-35.392 28.608-64 64-64h640c35.392 0 64 28.608 64 64v512c0 35.392-28.608 64-64 64h-512zM640 64h-512v384h512v-384z" />
<glyph unicode="&#xe908;" glyph-name="share" d="M800 384c-69.632 0-131.136-32.512-172.16-82.368l-130.24 65.088c8.64 25.728 14.4 52.736 14.4 81.28s-5.76 55.552-14.4 81.28l130.24 65.088c41.024-49.856 102.528-82.368 172.16-82.368 123.712 0 224 100.288 224 224s-100.288 224-224 224-224-100.288-224-224c0-8 1.472-15.488 2.368-23.232l-151.232-75.648c-45.376 41.152-105.088 66.88-171.136 66.88-141.376 0-256-114.624-256-256s114.624-256 256-256c66.048 0 125.76 25.728 171.136 66.88l151.232-75.648c-0.896-7.744-2.368-15.232-2.368-23.232 0-123.712 100.288-224 224-224s224 100.288 224 224-100.288 224-224 224zM800 851.2c63.488 0 115.2-51.712 115.2-115.2s-51.712-115.2-115.2-115.2-115.2 51.712-115.2 115.2 51.712 115.2 115.2 115.2zM256 316.352c-72.64 0-131.648 59.008-131.648 131.648s59.008 131.648 131.648 131.648 131.648-59.008 131.648-131.648-59.008-131.648-131.648-131.648zM800 44.8c-63.488 0-115.2 51.712-115.2 115.2s51.712 115.2 115.2 115.2 115.2-51.712 115.2-115.2-51.712-115.2-115.2-115.2z" />
<glyph unicode="&#xe909;" glyph-name="collections" d="M128.001 839.951v0-783.902c0-0.134-0.098-0.049 0-0.049 0.112 0 0-0.096 0 0.049v783.902c0 0.134 0.1 0.049 0 0.049-0.11 0 0 0.096 0-0.049v0 0 0zM64 839.951c0 30.956 28.408 56.049 64.001 56.049 35.345 0 64.001-24.899 64.001-56.049v-783.902c0-30.954-28.406-56.049-64.001-56.049-35.345 0-64.001 24.899-64.001 56.049v783.902zM115.2 831.999v0c0-0.126-0.101 0-0.009 0h153.621c0.092 0-0.009-0.128-0.009 0 0 0.126 0.101 0 0.009 0h-153.621c-0.092 0 0.009 0.128 0.009 0v0 0 0zM64 831.999c0 35.345 22.718 64.001 51.191 64.001h153.621c28.271 0 51.191-28.408 51.191-64.001 0-35.345-22.718-64.001-51.191-64.001h-153.621c-28.271 0-51.191 28.406-51.191 64.001v0 0 0zM115.2 64.001v0c0-0.126-0.101 0-0.009 0h153.621c0.092 0-0.009-0.128-0.009 0 0 0.126 0.101 0 0.009 0h-153.621c-0.092 0 0.009 0.128 0.009 0v0 0 0zM64 64.001c0 35.345 22.718 64.001 51.191 64.001h153.621c28.271 0 51.191-28.408 51.191-64.001 0-35.345-22.718-64.001-51.191-64.001h-153.621c-28.271 0-51.191 28.408-51.191 64.001v0 0 0zM895.999 839.951v0-783.902c0-0.134 0.1-0.049 0-0.049-0.11 0 0-0.096 0 0.049v783.902c0 0.134-0.1 0.049 0 0.049 0.11 0 0 0.096 0-0.049v0 0 0zM960 839.951c0 30.956-28.408 56.049-64.001 56.049-35.345 0-64.001-24.899-64.001-56.049v-783.902c0-30.954 28.408-56.049 64.001-56.049 35.345 0 64.001 24.899 64.001 56.049v783.902zM908.8 831.999v0c0-0.126 0.101 0 0.009 0h-153.619c-0.092 0 0.009-0.128 0.009 0 0 0.126-0.101 0-0.009 0h153.619c0.092 0-0.009 0.128-0.009 0v0 0 0zM960 831.999c0 35.345-22.718 64.001-51.191 64.001h-153.619c-28.273 0-51.191-28.408-51.191-64.001 0-35.345 22.718-64.001 51.191-64.001h153.619c28.273 0 51.191 28.406 51.191 64.001v0 0 0zM908.8 64.001v0c0-0.126 0.101 0 0.009 0h-153.619c-0.092 0 0.009-0.128 0.009 0 0 0.126-0.101 0-0.009 0h153.619c0.092 0-0.009 0.128-0.009 0v0 0 0zM960 64.001c0 35.345-22.718 64.001-51.191 64.001h-153.619c-28.273 0-51.191-28.408-51.191-64.001 0-35.345 22.718-64.001 51.191-64.001h153.619c28.273 0 51.191 28.408 51.191 64.001v0 0 0z" />
<glyph unicode="&#xe90a;" glyph-name="chat" d="M0.942 549.273c0 229.573 222.973 409.784 492.205 409.784s492.205-180.212 492.205-409.784c0-145.233-90.708-275.029-233.564-348.481l-242.822-245.301c-39.319-39.72-107.023-11.877-107.023 44.012v147.389c-227.42 35.346-401.001 200.195-401.001 402.381zM527.066 151.632l143.029 144.489c4.946 4.997 10.699 9.124 17.018 12.208 107.963 52.702 173.116 143.621 173.116 240.944 0 153.901-161.788 284.661-367.082 284.661s-367.082-130.76-367.082-284.661c0-146.626 147.474-273.196 341.782-283.593 33.205-1.777 59.219-29.219 59.219-62.472v-51.576z" />
<glyph unicode="&#xe90b;" glyph-name="minus-circle" d="M512 960c-282.752 0-512-229.248-512-512s229.248-512 512-512 512 229.248 512 512-229.248 512-512 512zM512 64c-211.776 0-384 172.224-384 384s172.224 384 384 384 384-172.224 384-384-172.224-384-384-384zM696.704 512h-369.152c-33.92 0-61.44-30.016-61.504-64 0.064-33.984 27.584-64 61.504-64h369.152c33.92 0 61.44 30.016 61.504 64 0 33.92-27.584 64-61.504 64z" />
<glyph unicode="&#xe90c;" glyph-name="data" horiz-adv-x="1022" d="M188.999 401.617c12.476-17.020 21.209-38.73 26.2-65.124s7.486-60.204 7.486-101.434c0-30.922 0.702-53.723 2.106-68.402s4.211-25.847 8.422-33.498c4.211-7.651 9.279-12.649 15.205-14.993s16.064-4.608 30.41-6.793c11.853-1.563 21.677-7.341 29.474-17.334s11.697-23.112 11.697-39.356c0-37.793-22.925-56.69-68.774-56.69-28.383 0-53.724 5.935-76.024 17.803s-39.532 28.656-51.696 50.366c-12.164 21.708-18.4 46.616-18.714 74.728-0.936 47.476-1.87 85.583-2.806 114.319s-2.341 47.319-4.211 55.753c-4.678 20.927-11.618 36.7-20.818 47.319s-21.209 20.536-36.025 29.751c-14.814 9.215-25.343 17.491-31.58 24.83s-9.356 18.975-9.356 34.905c0 23.114 9.045 40.449 27.136 52.005 22.456 14.055 38.441 26.003 47.954 35.841s16.219 22.489 20.116 37.95c3.898 15.461 6.16 32.328 6.784 50.599s1.559 62.235 2.806 131.887c0.936 43.102 14.58 77.538 40.937 103.308s61.523 38.651 105.499 38.651c45.849 0 68.774-18.584 68.774-55.753 0-16.867-3.822-30.142-11.462-39.823s-17.543-15.305-29.708-16.867c-18.089-2.499-30.722-6.246-37.896-11.244s-11.853-14.681-14.035-29.047c-2.184-14.367-3.586-42.165-4.211-83.396-0.625-40.291-3.041-73.321-7.251-99.089s-12.476-47.71-24.795-65.828c-12.321-18.115-30.176-34.513-53.567-49.194 22.142-13.743 39.451-29.127 51.927-46.148zM833.002 401.617c-12.475-17.020-21.209-38.73-26.199-65.124s-7.486-60.204-7.486-101.434c0-30.922-0.702-53.723-2.106-68.402s-4.211-25.847-8.422-33.498c-4.211-7.651-9.279-12.649-15.205-14.993s-16.062-4.608-30.41-6.793c-11.853-1.563-21.677-7.341-29.474-17.334s-11.697-23.112-11.697-39.356c0-37.793 22.923-56.69 68.774-56.69 28.383 0 53.723 5.935 76.023 17.803s39.532 28.656 51.696 50.366c12.164 21.708 18.4 46.616 18.714 74.728 0.936 47.476 1.87 85.583 2.806 114.319s2.339 47.319 4.211 55.753c4.678 20.927 11.618 36.7 20.82 47.319s21.209 20.536 36.025 29.751c14.814 9.215 25.34 17.491 31.58 24.83s9.356 18.975 9.356 34.905c0 23.114-9.044 40.449-27.135 52.005-22.456 14.055-38.441 26.003-47.954 35.841s-16.219 22.489-20.118 37.95c-3.9 15.461-6.159 32.328-6.784 50.599s-1.559 62.235-2.806 131.887c-0.936 43.102-14.58 77.538-40.936 103.308s-61.52 38.651-105.499 38.651c-45.849 0-68.774-18.584-68.774-55.753 0-16.867 3.82-30.142 11.462-39.823s17.545-15.305 29.707-16.867c18.091-2.499 30.722-6.246 37.896-11.244s11.853-14.681 14.035-29.047c2.184-14.367 3.586-42.165 4.211-83.396 0.623-40.291 3.041-73.321 7.251-99.089s12.475-47.71 24.795-65.828c12.321-18.115 30.176-34.513 53.567-49.194-22.142-13.743-39.451-29.127-51.927-46.148z" />
<glyph unicode="&#xe90d;" glyph-name="folder" d="M960 832h-512v64c0 35.2-28.8 64-64 64h-320c-35.2 0-64-28.8-64-64v-896c0-35.2 28.8-64 64-64h896c35.2 0 64 28.8 64 64v768c0 35.2-28.8 64-64 64zM896 64h-768v768h192v-96c0-17.664 14.336-32 32-32h544v-640z" />
<glyph unicode="&#xe90e;" glyph-name="analytics" horiz-adv-x="1031" d="M386.353 120.78c-20.137 0-39.37 9.425-51.632 25.817l-138.892 185.234-78.481-117.786c-19.81-29.624-59.899-37.566-89.518-17.882-29.624 19.81-37.692 59.828-17.882 89.518l129.085 193.621c11.618 17.493 30.981 28.139 51.954 28.721 21.104-0.32 40.789-9.032 53.375-25.817l130.952-174.582 146.898 293.852c10.008 20.004 29.624 33.435 51.954 35.433 22.463 2.191 44.014-7.681 57.44-25.618l130.952-174.582 146.898 293.852c15.941 31.819 54.665 44.658 86.614 28.854 31.883-15.941 44.791-54.735 28.854-86.614l-193.621-387.241c-10.008-20.004-29.624-33.435-51.954-35.433-22.463-1.94-44.014 7.615-57.44 25.561l-130.888 174.582-146.898-293.789c-10.065-20.004-29.624-33.435-51.954-35.433-1.94-0.193-3.937-0.263-5.809-0.263z" />
<glyph unicode="&#xe90f;" glyph-name="return-arrow" d="M911.514 258.054c19.51 14.922 19.841 39.016 0.336 53.856l-277.285 215.676c-19.675 14.922-41.684 6.837-41.684-17.924v-141.309h-458.529c-22.927 0-41.684-18.675-41.684-41.684v-83.368c0-23.009 18.759-41.684 41.684-41.684h458.529v-141.309c0-24.761 22.093-32.849 41.684-17.924l276.951 215.676zM92.645 826.822v-583.51c0-22.48 18.838-41.72 42.073-41.72h82.589c24.231 0 42.073 18.68 42.073 41.72v583.51c0 22.48-18.838 41.72-42.073 41.72h-82.589c-24.23 0-42.073-18.68-42.073-41.72z" />
<glyph unicode="&#xe910;" glyph-name="zoom" d="M972.16 239.36l-164.48 164.48c16 43.52 24.32 90.88 24.32 140.16 0 229.76-186.24 416-416 416s-416-186.24-416-416 186.24-416 416-416c49.28 0 96.64 8.32 140.16 24.32l164.416-164.48c33.344-33.28 78.144-51.84 125.504-51.84s92.16 18.56 126.144 51.84c69.056 69.76 69.056 182.4-0.064 251.52zM450.56 257.92c-11.52-1.28-23.040-1.92-34.56-1.92-158.72 0-288 129.28-288 288s129.28 288 288 288 288-129.28 288-288c0-11.52-0.64-23.040-1.92-34.56-5.76-48-23.68-92.8-50.56-130.56-19.2-27.52-42.88-51.2-70.4-70.4-37.76-26.88-82.56-44.8-130.56-50.56zM881.28 78.72c-18.496-19.264-51.84-19.264-70.4 0l-138.24 138.176c26.24 20.48 49.92 44.16 70.464 70.464l138.176-138.24c19.84-19.84 19.84-51.2 0-70.4z" />
<glyph unicode="&#xe911;" glyph-name="wifi-rounded" horiz-adv-x="853" d="M626.916-49.948c138.752 122.482 226.418 300.26 226.418 497.892 0 197.689-87.666 375.467-226.418 497.948-23.324 20.651-61.781 17.92-84.025-3.868l-0.91-0.853c-22.244-21.845-19.285-53.931 4.267-74.354 118.5-102.457 193.308-252.473 193.308-418.873s-74.809-316.359-193.252-418.873c-23.552-20.366-26.51-52.452-4.267-74.297l0.91-0.91c22.187-21.732 60.587-24.462 83.968-3.812zM625.778 447.943c0 135.851-62.35 257.593-160.484 339.854-23.893 20.025-63.431 15.872-85.675-5.916l-2.048-1.991c-22.244-21.845-17.692-51.371 6.77-70.77 77.767-61.383 127.659-155.591 127.659-261.177 0-105.529-49.892-199.737-127.659-261.177-24.462-19.342-29.013-48.924-6.77-70.713l2.048-1.991c22.244-21.845 61.781-25.884 85.675-5.916 98.133 82.261 160.484 204.004 160.484 339.797zM398.222 447.943c0 75.833-30.891 144.384-80.612 194.617-21.902 22.13-61.383 18.204-83.627-3.527l-2.617-2.56c-22.244-21.845-16.612-50.517 5.177-72.647 29.639-30.151 47.9-70.997 47.9-115.883 0-44.828-18.261-85.675-47.9-115.769-21.788-22.244-27.364-50.916-5.177-72.647l2.617-2.56c22.244-21.788 61.724-25.657 83.627-3.527 49.721 50.176 80.612 118.727 80.612 194.503zM113.778 379.449c-38.551 0-69.803 30.666-69.803 68.494s31.252 68.494 69.803 68.494c38.551 0 69.803-30.666 69.803-68.494s-31.252-68.494-69.803-68.494z" />
<glyph unicode="&#xe912;" glyph-name="expand-vertically" horiz-adv-x="576" d="M532.16 258.112h-180.16v384h180.16c19.008 0 24.768 13.056 12.864 27.904l-231.936 280.192c-11.904 14.848-31.040 11.904-43.008-2.816l-231.936-277.376c-11.84-14.848-6.144-27.904 12.864-27.904h172.992v-384h-172.992c-19.008 0-24.768-14.656-12.864-29.44l231.936-280.512c11.968-14.848 31.040-12.416 43.008 2.304l231.936 278.208c11.904 14.784 6.144 29.44-12.864 29.44z" />
<glyph unicode="&#xf00c;" glyph-name="check" d="M352.471 103.488l-312.545 305.133c-17.412 16.787-17.412 44.115 0 61.081l63.134 61.081c17.412 16.788 45.72 16.788 63.134 0l217.889-213.78 485.694 475.514c17.413 16.788 45.72 16.788 63.134 0l63.134-61.081c17.412-16.787 17.412-44.203 0-60.99l-580.44-567.134c-17.413-16.699-45.632-16.699-63.134 0.179z" />
<glyph unicode="&#xf00d;" glyph-name="times" horiz-adv-x="826" d="M798.059 204.39l-243.511 243.61 243.61 243.61c19.292 19.193 19.292 50.396 0 69.589l-69.688 69.589c-19.193 19.193-50.396 19.193-69.589 0l-243.511-243.61-243.61 243.61c-19.193 19.193-50.396 19.193-69.589 0l-69.589-69.688c-19.292-19.193-19.292-50.396 0-69.589l243.61-243.61-243.61-243.511c-19.292-19.193-19.292-50.396 0-69.589l69.589-69.589c19.193-19.193 50.396-19.193 69.589 0l243.61 243.61 243.511-243.61c19.193-19.193 50.396-19.193 69.589 0l69.589 69.589c19.39 19.293 19.39 50.396 0 69.589z" />
<glyph unicode="&#xf011;" glyph-name="power-off" d="M703.999 756.352v-95.36c0-17.664 11.648-31.040 24.64-43.008 63.296-58.304 103.36-141.312 103.36-233.984 0-176.448-143.552-320-320-320s-320 143.552-320 320c0 92.672 40.064 175.68 103.36 233.984 12.992 11.968 24.64 24.32 24.64 41.984v96.384c0 17.664-13.056 25.92-28.416 17.216-135.808-76.864-227.584-222.4-227.584-389.568 0-247.424 200.64-448 448-448s448 200.576 448 448c0 167.168-91.776 312.704-227.584 389.568-15.36 8.768-28.416 0.512-28.416-17.216zM511.999 512c35.392 0 64 28.608 64 64v320c0 35.392-28.608 64-64 64s-64-28.608-64-64v-320c0-35.392 28.608-64 64-64z" />
<glyph unicode="&#xf053;" glyph-name="chevron-left" horiz-adv-x="624" d="M457.011-48.742c19.354-20.378 50.79-20.378 70.042 0l69.939 73.421c19.354 20.173 19.354 53.043 0 73.216l-337.408 348.672 340.173 351.642c19.354 20.275 19.354 53.146 0 73.318l-69.939 73.421c-19.251 20.173-50.586 20.173-70.042 0l-445.44-461.619c-19.251-20.275-19.251-53.146 0-73.421l442.675-458.65z" />
<glyph unicode="&#xf054;" glyph-name="chevron-right" horiz-adv-x="619" d="M157.389 944.742c-19.354 20.378-50.79 20.378-70.042 0l-69.939-73.421c-19.354-20.173-19.354-53.043 0-73.216l337.408-348.672-340.173-351.642c-19.354-20.275-19.354-53.146 0-73.318l70.042-73.421c19.251-20.173 50.586-20.173 70.042 0l445.44 461.619c19.251 20.275 19.251 53.146 0 73.421l-442.778 458.65z" />
<glyph unicode="&#xf057;" glyph-name="times-circle" d="M512 960c-282.752 0-512-229.248-512-512s229.248-512 512-512 512 229.248 512 512-229.248 512-512 512zM512 64c-211.776 0-384 172.224-384 384s172.224 384 384 384 384-172.224 384-384-172.224-384-384-384zM686.144 622.016c-24.064 24-62.976 24-86.976 0l-87.040-87.040-86.976 87.040c-24 24-62.912 24-86.976 0-24-24.064-24-62.976 0-86.976l86.976-87.040-87.040-86.976c-24-24-24-62.976 0-86.976 24.064-24 62.976-24 86.976 0l86.976 86.976 86.976-86.976c24-24 62.912-24 86.976 0 24 24 24 62.976 0 86.976l-86.912 86.976 86.976 86.976c24.064 24 24.064 62.976 0.064 87.040z" />
<glyph unicode="&#xf05a;" glyph-name="info-circle" d="M512 960c-282.752 0-512-229.248-512-512s229.248-512 512-512 512 229.248 512 512-229.248 512-512 512zM512 64c-211.776 0-384 172.288-384 384s172.224 384 384 384c211.712 0 384-172.288 384-384s-172.288-384-384-384zM544 704h-64c-17.664 0-32-14.336-32-32v-64c0-17.664 14.336-32 32-32h64c17.664 0 32 14.336 32 32v64c0 17.664-14.336 32-32 32zM544 512h-64c-17.664 0-32-14.336-32-32v-256c0-17.664 14.336-32 32-32h64c17.664 0 32 14.336 32 32v256c0 17.664-14.336 32-32 32z" />
<glyph unicode="&#xf067;" glyph-name="plus" horiz-adv-x="1018" d="M973.434 551.513h-362.296v362.296c0 28.569-23.187 51.757-51.757 51.757h-103.513c-28.569 0-51.757-23.187-51.757-51.757v-362.296h-362.296c-28.569 0-51.757-23.187-51.757-51.757v-103.513c0-28.569 23.187-51.757 51.757-51.757h362.296v-362.296c0-28.569 23.187-51.757 51.757-51.757h103.513c28.569 0 51.757 23.187 51.757 51.757v362.296h362.296c28.569 0 51.757 23.187 51.757 51.757v103.513c0 28.569-23.187 51.757-51.757 51.757z" />
<glyph unicode="&#xf068;" glyph-name="minus" horiz-adv-x="1018" d="M66.179 322.306h879.865c34.692 0 62.847 28.155 62.847 62.847v125.694c0 34.692-28.156 62.848-62.847 62.848h-879.865c-34.693 0-62.848-28.156-62.848-62.848v-125.694c0-34.693 28.156-62.847 62.848-62.847v0z" />
<glyph unicode="&#xf071;" glyph-name="warning" d="M512 960c-282.752 0-512-229.248-512-512s229.248-512 512-512 512 229.248 512 512-229.248 512-512 512zM512 64c-211.776 0-384 172.288-384 384s172.224 384 384 384c211.648 0 384-172.288 384-384s-172.352-384-384-384zM544 768h-64c-17.664 0-32-14.336-32-32v-384c0-17.664 14.336-32 32-32h64c17.664 0 32 14.336 32 32v384c0 17.664-14.336 32-32 32zM544 256h-64c-17.664 0-32-14.336-32-32v-64c0-17.664 14.336-32 32-32h64c17.664 0 32 14.336 32 32v64c0 17.664-14.336 32-32 32z" />
<glyph unicode="&#xf073;" glyph-name="calendar" horiz-adv-x="1036" d="M640 320h128v-128h-128v128zM320 864v64c0 17.664-14.336 32-32 32h-64c-17.664 0-32-14.336-32-32v-64c0-17.664 14.336-32 32-32h64c17.664 0 32 14.336 32 32zM640 512h128v-128h-128v128zM832 864v64c0 17.664-14.336 32-32 32h-64c-17.664 0-32-14.336-32-32v-64c0-17.664 14.336-32 32-32h64c17.664 0 32 14.336 32 32zM864 768h-192c-17.664 0-32 14.336-32 32v128c0 17.664-14.336 32-32 32h-192c-17.664 0-32-14.336-32-32v-128c0-17.664-14.336-32-32-32h-192c-17.664 0-32 14.336-32 32v128c0 17.664-14.336 32-32 32h-32c-35.328 0-64-28.608-64-64v-896c0-35.392 28.672-64 64-64h896c35.328 0 64 28.608 64 64v896c0 35.392-28.672 64-64 64h-32c-17.664 0-32-14.336-32-32v-128c0-17.664-14.336-32-32-32zM896 64h-768v576h768v-576zM256 512h128v-128h-128v128zM448 512h128v-128h-128v128zM256 320h128v-128h-128v128zM448 320h128v-128h-128v128z" />
<glyph unicode="&#xf077;" glyph-name="chevron-up" d="M15.258 305.656c-20.378-19.354-20.378-50.79 0-70.042l73.421-69.939c20.173-19.354 53.043-19.354 73.216 0l348.672 337.408 351.642-340.173c20.275-19.354 53.146-19.354 73.318 0l73.421 69.939c20.173 19.251 20.173 50.586 0 70.042l-461.619 445.44c-20.275 19.251-53.146 19.251-73.421 0l-458.65-442.675z" />
<glyph unicode="&#xf078;" glyph-name="chevron-down" d="M1008.742 594.611c20.378 19.354 20.378 50.79 0 70.042l-73.421 69.939c-20.173 19.354-53.043 19.354-73.216 0l-348.672-337.408-351.642 340.173c-20.275 19.354-53.146 19.354-73.318 0l-73.421-70.042c-20.173-19.251-20.173-50.586 0-70.042l461.619-445.44c20.275-19.251 53.146-19.251 73.421 0l458.65 442.778z" />
<glyph unicode="&#xf099;" glyph-name="twitter" horiz-adv-x="951" d="M955.229 745.138q-40.796-59.671-98.639-101.685 0.608-8.524 0.608-25.573 0-79.156-23.137-158.007t-70.327-151.309-112.341-128.171-157.094-88.898-196.671-33.185q-165.009 0-302.010 88.289 21.311-2.436 47.493-2.436 136.999 0 244.165 84.027-63.933 1.218-114.471 39.273t-69.413 97.118q20.093-3.044 37.142-3.044 26.182 0 51.755 6.698-68.196 14.005-112.949 67.891t-44.754 125.127v2.436q41.404-23.137 88.898-24.965-40.187 26.791-63.933 70.022t-23.747 93.769q0 53.582 26.791 99.25 73.675-90.725 179.319-145.22t226.203-60.584q-4.87 23.137-4.87 45.058 0 81.591 57.54 139.131t139.131 57.54q85.245 0 143.698-62.107 66.369 12.787 124.823 47.493-22.529-70.022-86.463-108.382 56.627 6.088 113.254 30.444z" />
<glyph unicode="&#xf0c5;" glyph-name="copy" d="M960 960h-640c-35.392 0-64-28.608-64-64v-192h-192c-35.392 0-64-28.608-64-64v-640c0-35.392 28.608-64 64-64h640c35.392 0 64 28.608 64 64v192h192c35.392 0 64 28.608 64 64v640c0 35.392-28.608 64-64 64zM640 64h-512v512h512v-512zM896 320h-128v320c0 35.392-28.608 64-64 64h-320v128h512v-512zM224 256h96v-96c0-17.664 14.336-32 32-32h64c17.664 0 32 14.336 32 32v96h96c17.664 0 32 14.336 32 32v64c0 17.664-14.336 32-32 32h-96v96c0 17.664-14.336 32-32 32h-64c-17.664 0-32-14.336-32-32v-96h-96c-17.664 0-32-14.336-32-32v-64c0-17.664 14.336-32 32-32z" />
<glyph unicode="&#xf0c8;" glyph-name="square" d="M80 173.714v548.571q0 68 48.286 116.286t116.286 48.286h548.571q68 0 116.286-48.286t48.286-116.286v-548.571q0-68-48.286-116.286t-116.286-48.286h-548.571q-68 0-116.286 48.286t-48.286 116.286z" />
<glyph unicode="&#xf10c;" glyph-name="circle-o" d="M80 448q0 119.429 58.857 220.286t159.714 159.714 220.286 58.857 220.286-58.857 159.714-159.714 58.857-220.286-58.857-220.286-159.714-159.714-220.286-58.857-220.286 58.857-159.714 159.714-58.857 220.286zM208 448q0-84.571 41.714-156t113.143-113.143 156-41.714 156 41.714 113.143 113.143 41.714 156-41.714 156-113.143 113.143-156 41.714-156-41.714-113.143-113.143-41.714-156z" />
<glyph unicode="&#xf142;" glyph-name="ellipsis-v" horiz-adv-x="1019" d="M64.102 576.114h128.206c17.806 0 32.942-6.227 45.407-18.682s18.698-27.582 18.698-45.375v-128.114c0-17.793-6.231-32.919-18.698-45.375s-27.6-18.682-45.407-18.682h-128.206c-17.806 0-32.942 6.227-45.407 18.682s-18.698 27.582-18.698 45.375v128.114c0 17.793 6.231 32.919 18.698 45.375s27.6 18.682 45.407 18.682v0zM445.4 576.114h128.206c17.806 0 32.942-6.227 45.407-18.682s18.698-27.582 18.698-45.375v-128.114c0-17.793-6.231-32.919-18.698-45.375s-27.6-18.682-45.407-18.682h-128.206c-17.806 0-32.942 6.227-45.407 18.682s-18.698 27.582-18.698 45.375v128.114c0 17.793 6.231 32.919 18.698 45.375s27.6 18.682 45.407 18.682zM826.707 576.114h128.206c17.806 0 32.942-6.227 45.407-18.682s18.698-27.582 18.698-45.375v-128.114c0-17.793-6.231-32.919-18.698-45.375s-27.6-18.682-45.407-18.682h-128.206c-17.806 0-32.942 6.227-45.407 18.682s-18.698 27.582-18.698 45.375v128.114c0 17.793 6.231 32.919 18.698 45.375s27.6 18.682 45.407 18.682z" />
<glyph unicode="&#xf14a;" glyph-name="check-square" d="M80 173.714v548.571q0 68 48.286 116.286t116.286 48.286h548.571q68 0 116.286-48.286t48.286-116.286v-548.571q0-68-48.286-116.286t-116.286-48.286h-548.571q-68 0-116.286 48.286t-48.286 116.286zM204.571 448q0-14.857 10.857-25.714l204.571-204.571q10.857-10.857 25.714-10.857t25.714 10.857l350.857 350.857q10.857 10.857 10.857 25.714t-10.857 25.714l-58.286 58.286q-10.857 10.857-25.714 10.857t-25.714-10.857l-266.857-266.857-120.571 120.571q-10.857 10.857-25.714 10.857t-25.714-10.857l-58.286-58.286q-10.857-10.857-10.857-25.714z" />
<glyph unicode="&#xf192;" glyph-name="dot-circle-o" d="M80 448q0 119.429 58.857 220.286t159.714 159.714 220.286 58.857 220.286-58.857 159.714-159.714 58.857-220.286-58.857-220.286-159.714-159.714-220.286-58.857-220.286 58.857-159.714 159.714-58.857 220.286zM208 448q0-84.571 41.714-156t113.143-113.143 156-41.714 156 41.714 113.143 113.143 41.714 156-41.714 156-113.143 113.143-156 41.714-156-41.714-113.143-113.143-41.714-156zM372.571 448q0 60.571 42.857 103.429t103.429 42.857 103.429-42.857 42.857-103.429-42.857-103.429-103.429-42.857-103.429 42.857-42.857 103.429z" />
</font>
</defs>
</svg>
